<svg width="31" height="31" viewBox="0 0 31 31" fill="none" xmlns="http://www.w3.org/2000/svg">
<path d="M26.2162 0.310059H4.77968C2.48258 0.310059 0.613281 2.17626 0.613281 4.47646V26.5237C0.613281 28.8239 2.47948 30.6901 4.77968 30.6901H26.2162C28.5164 30.6901 30.3826 28.8239 30.3826 26.5237V4.47646C30.3857 2.17626 28.5164 0.310059 26.2162 0.310059ZM28.6683 26.5237C28.6683 27.8753 27.5678 28.9758 26.2162 28.9758H4.77968C3.42808 28.9758 2.32758 27.8753 2.32758 26.5237V4.47646C2.32758 3.12486 3.42808 2.02436 4.77968 2.02436H15.4979H26.2162C27.5678 2.02436 28.6683 3.12486 28.6683 4.47646V26.5237Z" fill="#f1faee"/>
<path fill-rule="evenodd" clip-rule="evenodd" d="M1.87891 1.87891H29.1213V29.1213H1.87891V1.87891ZM7.87843 19.1738C6.86473 19.1738 6.04013 19.9984 6.04013 21.009C6.04013 22.0227 6.86473 22.8473 7.87843 22.8473C8.89213 22.8473 9.71673 22.0227 9.71673 21.009C9.71673 19.9984 8.89213 19.1738 7.87843 19.1738ZM6.04013 15.4969C6.04013 14.4863 6.86473 13.6617 7.87843 13.6617C8.89213 13.6617 9.71673 14.4863 9.71673 15.4969C9.71673 16.5106 8.89213 17.3352 7.87843 17.3352C6.86473 17.3352 6.04013 16.5106 6.04013 15.4969ZM7.87843 8.15331C6.86473 8.15331 6.04013 8.97791 6.04013 9.98851C6.04013 11.0022 6.86473 11.8268 7.87843 11.8268C8.89213 11.8268 9.71673 11.0022 9.71673 9.98851C9.71673 8.97481 8.89213 8.15331 7.87843 8.15331ZM25.1932 8.48815H12.6196V10.7728H25.1932V8.48815ZM12.6196 14.3561H25.1932V16.6439H12.6196V14.3561ZM25.1932 20.2246H12.6196V22.5093H25.1932V20.2246Z" fill="#f1faee"/>
</svg>
