<svg width="24" height="38" viewBox="0 0 24 38" fill="none" xmlns="http://www.w3.org/2000/svg">
<path d="M19.3846 0H4.61538C2.06769 0 0 1.93455 0 4.31818V33.6818C0 36.0655 2.06769 38 4.61538 38H19.3846C21.9323 38 24 36.0655 24 33.6818V4.31818C24 1.93455 21.9323 0 19.3846 0ZM12 36.2727C10.4677 36.2727 9.23077 35.1155 9.23077 33.6818C9.23077 32.2482 10.4677 31.0909 12 31.0909C13.5323 31.0909 14.7692 32.2482 14.7692 33.6818C14.7692 35.1155 13.5323 36.2727 12 36.2727ZM20.3077 29.3636H3.69231V5.18182H20.3077V29.3636Z" fill="#2E5CB2"/>
</svg>
