<svg width="22" height="22" viewBox="0 0 22 22" fill="none" xmlns="http://www.w3.org/2000/svg">
<path d="M11.0026 0.458496C16.8234 0.458496 21.5443 5.17933 21.5443 11.0002C21.5443 16.821 16.8234 21.5418 11.0026 21.5418C5.18177 21.5418 0.460938 16.821 0.460938 11.0002C0.460938 5.17933 5.18177 0.458496 11.0026 0.458496Z" fill="#2E5CB2"/>
<path d="M11 22C4.9346 22 0 17.0654 0 11C0 4.9346 4.9346 0 11 0C17.0654 0 22 4.9346 22 11C22 17.0654 17.0654 22 11 22ZM11 0.916667C5.44 0.916667 0.916667 5.44 0.916667 11C0.916667 16.56 5.44 21.0833 11 21.0833C16.56 21.0833 21.0833 16.56 21.0833 11C21.0833 5.44 16.56 0.916667 11 0.916667Z" fill="#2E5CB2"/>
<path d="M11 6.63636V8.81818L14 5.90909L11 3V5.18182C7.685 5.18182 5 7.78545 5 11C5 12.1418 5.345 13.2036 5.93 14.0982L7.025 13.0364C6.6875 12.4327 6.5 11.7345 6.5 11C6.5 8.59273 8.5175 6.63636 11 6.63636ZM16.07 7.90182L14.975 8.96364C15.305 9.57455 15.5 10.2655 15.5 11C15.5 13.4073 13.4825 15.3636 11 15.3636V13.1818L8 16.0909L11 19V16.8182C14.315 16.8182 17 14.2145 17 11C17 9.85818 16.655 8.79636 16.07 7.90182Z" fill="#F1FAEE"/>
</svg>
