<svg width="123" height="112" viewBox="0 0 123 112" fill="none" xmlns="http://www.w3.org/2000/svg">
<g clip-path="url(#clip0_636_595)">
<path d="M2.34923 84.43L45.2892 10.2L45.4592 9.93C47.2281 7.03119 49.6191 4.56167 52.4592 2.7C55.1804 0.95059 58.3443 0.0139252 61.5792 0C64.8116 0.000509587 67.975 0.934608 70.6892 2.69C73.5355 4.55688 75.9274 7.03761 77.6892 9.95C77.8192 10.16 77.9392 10.37 78.0492 10.59L120.289 83.93L120.519 84.37C122.109 87.5296 122.922 91.0231 122.889 94.56C122.873 97.4795 122.131 100.349 120.729 102.91C119.146 105.771 116.724 108.078 113.789 109.52L113.209 109.78C110.337 111.021 107.227 111.615 104.099 111.52H17.6192C17.3892 111.52 17.1792 111.52 16.9592 111.52C14.8411 111.503 12.7425 111.114 10.7592 110.37C7.6081 109.176 4.89946 107.043 2.99923 104.26C1.08989 101.426 0.0474278 98.0969 -0.000766732 94.68C-0.0501345 91.6923 0.483136 88.7237 1.56923 85.94C1.77331 85.4115 2.03134 84.9055 2.33923 84.43H2.34923Z" fill="#E63746"/>
<path fill-rule="evenodd" clip-rule="evenodd" d="M8.9995 88.7601L52.1495 14.1601C57.3795 5.91005 65.6795 5.70005 71.0195 14.1601L113.46 87.8601C116.84 94.6701 115.16 103.86 104.12 103.63H17.6195C10.3495 103.81 5.6195 97.4401 8.9795 88.7601H8.9995Z" fill="#E63746"/>
<path d="M57.5706 82.7001C58.505 81.7751 59.7393 81.2147 61.0506 81.1201C61.8664 81.0648 62.6846 81.1841 63.4506 81.4701C64.2008 81.7637 64.8818 82.2097 65.4506 82.7801C66.404 83.7273 66.9799 84.9892 67.0706 86.3301C67.0983 86.7983 67.0715 87.2681 66.9906 87.7301C66.7643 89.0486 66.0686 90.2407 65.0319 91.0862C63.9953 91.9317 62.6877 92.3735 61.3506 92.3301C60.5661 92.3157 59.7932 92.1386 59.0806 91.8101C57.8025 91.2222 56.7948 90.1716 56.2606 88.8701C56.0948 88.4619 55.9774 88.0356 55.9106 87.6001C55.8414 87.1671 55.8213 86.7276 55.8506 86.2901C55.9265 85.5961 56.1192 84.9199 56.4206 84.2901C56.6822 83.6957 57.0674 83.1639 57.5506 82.7301L57.5706 82.7001ZM65.7306 72.4601C65.5306 77.2501 57.4206 77.2601 57.2306 72.4601C56.4106 64.2501 54.3106 43.0701 54.3806 35.3601C54.4506 32.9801 56.3806 31.5701 58.9406 31.0301C60.5912 30.7022 62.2901 30.7022 63.9406 31.0301C66.5506 31.5901 68.5906 33.0301 68.5906 35.4701V35.7101L65.7306 72.4601Z" fill="white"/>
</g>
<defs>
<clipPath id="clip0_636_595">
<rect width="122.89" height="111.55" fill="white"/>
</clipPath>
</defs>
</svg>
