<svg width="39" height="45" viewBox="0 0 39 45" fill="none" xmlns="http://www.w3.org/2000/svg">
<path d="M9.22533 7.16748L0 21.6739L9.22533 36.1827L9.3862 36.0694L9.26814 7.19727L9.22533 7.16748Z" fill="#876929"/>
<path d="M19.5287 33.5752L9.22559 36.1827V7.16748L19.5287 9.77435V33.5752Z" fill="#D9A741"/>
<path d="M38.9965 10.8188L34.0301 11.6299L22.6285 0.00488281L16.9603 2.45632L17.708 3.83356L13.6963 5.41739V42.0457L19.528 44.9276L19.625 44.8525L19.5353 7.2L31.8968 25.7028L38.9965 10.8188Z" fill="#876929"/>
<path d="M22.6289 0.00488281L37.8144 7.50379L31.8094 18.2653L22.6289 0.00488281Z" fill="#D9A741"/>
<path d="M38.9967 10.8189L39.0005 35.3044L19.529 44.9278L19.5264 3.11719L31.8098 25.1294L38.9967 10.8189Z" fill="#D9A741"/>
</svg>
