<svg width="40" height="40" viewBox="0 0 40 40" fill="none" xmlns="http://www.w3.org/2000/svg">
<path d="M15.4495 36.1125L11.3193 34.9596L7.41293 30.5231L12.2992 30.3888L15.4495 36.1125ZM5.89871 33.1867L3.57449 32.5384L1.37793 30.0431L4.04699 29.606L5.89871 33.1867Z" fill="#995B80"/>
<path d="M0 29.7291L2.37563 30.2101L2.72047 29.606V9.10656L2.37563 8.70801L0 10.0554V29.7291Z" fill="#7B3F65"/>
<path d="M11.5518 10.8503L2.37598 8.70801V30.2101L3.75066 30.0828L5.89816 33.1864L7.55441 29.7308L11.5518 29.3607V10.8503Z" fill="#C17B9D"/>
<path d="M5.30566 30.8365L9.37801 31.6535L9.64614 31.024V5.82867L9.37801 5.2583L5.30566 7.3138V30.8365Z" fill="#7B3F65"/>
<path d="M32.6143 12.688L9.37793 5.2583V31.6542L12.0687 31.3093L15.4489 36.1122L18.1248 30.533L32.6143 28.676V12.688Z" fill="#C17B9D"/>
<path d="M28.4111 39.9189L22.5414 38.2809L16.9932 31.9781L24.1858 31.9053L28.4111 39.9189Z" fill="#995B80"/>
<path d="M13.999 32.5198L19.9881 33.6741L20.4532 33.2747V0.642661L19.9881 0.00195312L13.999 2.98342V32.5198Z" fill="#7B3F65"/>
<path d="M40 9.96709L19.9883 0.00195312V33.6741L23.5191 32.9694L28.4114 39.9185L32.6147 31.1554L32.612 31.1551L40 29.6809V9.96709Z" fill="#C17B9D"/>
</svg>
