<svg width="33" height="33" viewBox="0 0 33 33" fill="none" xmlns="http://www.w3.org/2000/svg">
<path d="M16.4998 0.25293C7.52681 0.25293 0.25293 7.52681 0.25293 16.4998C0.25293 25.4727 7.52681 32.7466 16.4998 32.7466C25.4727 32.7466 32.7466 25.4727 32.7466 16.4998C32.7466 7.52681 25.4727 0.25293 16.4998 0.25293ZM25.4063 25.4063C24.9802 25.8323 24.4134 26.0673 23.8105 26.0673C23.2079 26.0673 22.6411 25.8327 22.215 25.4063L14.3433 17.5345C12.3294 18.2941 10.0642 17.81 8.53592 16.282C7.06396 14.8101 6.55814 12.6641 7.2156 10.6816C7.2387 10.6115 7.29683 10.5588 7.36832 10.5415C7.4398 10.5245 7.51562 10.5458 7.56761 10.5982L10.0566 13.0872C10.47 13.5002 11.0213 13.7252 11.604 13.7147C12.1882 13.706 12.7312 13.4663 13.1327 13.0399C13.918 12.2059 13.8663 10.8365 13.0168 9.98731L10.5975 7.56797C10.5455 7.51598 10.5238 7.44053 10.5408 7.36868C10.5578 7.29683 10.6108 7.23907 10.6809 7.21596C12.6637 6.55814 14.8094 7.06396 16.2813 8.53629C17.8096 10.0646 18.2938 12.3297 17.5338 14.3436L25.4063 22.215C25.8323 22.6411 26.0673 23.2079 26.0673 23.8105C26.0673 24.4134 25.8327 24.9802 25.4063 25.4063Z" fill="#F1FAEE"/>
</svg>
