<svg width="192" height="61" viewBox="0 0 192 61" fill="none" xmlns="http://www.w3.org/2000/svg">
<path d="M89.9619 20.6377H75.9902V28.4307H87.9951V31.6963H75.9902V45H72.3164V17.3721H89.9619V20.6377ZM97.4209 45H93.9326V16.1289H97.4209V45ZM120.429 45H116.959V42.792C116.65 43.0023 116.229 43.2992 115.697 43.6826C115.178 44.0537 114.671 44.3506 114.176 44.5732C113.594 44.8577 112.926 45.0928 112.172 45.2783C111.417 45.4762 110.533 45.5752 109.519 45.5752C107.651 45.5752 106.067 44.9567 104.769 43.7197C103.47 42.4827 102.82 40.9056 102.82 38.9883C102.82 37.4173 103.154 36.1494 103.822 35.1846C104.503 34.2074 105.467 33.4404 106.717 32.8838C107.979 32.3271 109.494 31.9499 111.263 31.752C113.032 31.554 114.93 31.4056 116.959 31.3066V30.7686C116.959 29.9769 116.817 29.3213 116.532 28.8018C116.26 28.2822 115.864 27.874 115.345 27.5771C114.85 27.2926 114.256 27.1009 113.563 27.002C112.871 26.903 112.147 26.8535 111.393 26.8535C110.477 26.8535 109.457 26.9772 108.331 27.2246C107.205 27.4596 106.043 27.806 104.843 28.2637H104.657V24.7197C105.338 24.5342 106.321 24.3301 107.607 24.1074C108.894 23.8848 110.162 23.7734 111.411 23.7734C112.871 23.7734 114.139 23.8971 115.215 24.1445C116.303 24.3796 117.243 24.7878 118.035 25.3691C118.814 25.9382 119.408 26.6742 119.816 27.5771C120.225 28.4801 120.429 29.5996 120.429 30.9355V45ZM116.959 39.8975V34.127C115.895 34.1888 114.64 34.2816 113.192 34.4053C111.757 34.529 110.619 34.7083 109.778 34.9434C108.776 35.2279 107.966 35.6732 107.348 36.2793C106.729 36.873 106.42 37.6956 106.42 38.7471C106.42 39.9346 106.779 40.8314 107.496 41.4375C108.214 42.0312 109.308 42.3281 110.78 42.3281C112.005 42.3281 113.124 42.0931 114.139 41.623C115.153 41.1406 116.093 40.5654 116.959 39.8975ZM141.952 39.0254C141.952 40.918 141.167 42.4704 139.596 43.6826C138.037 44.8949 135.903 45.501 133.194 45.501C131.66 45.501 130.25 45.3216 128.964 44.9629C127.69 44.5918 126.62 44.1898 125.754 43.7568V39.8418H125.939C127.04 40.6706 128.265 41.3324 129.613 41.8271C130.962 42.3096 132.254 42.5508 133.491 42.5508C135.025 42.5508 136.225 42.3034 137.091 41.8086C137.957 41.3138 138.39 40.5345 138.39 39.4707C138.39 38.6543 138.155 38.0358 137.685 37.6152C137.215 37.1947 136.312 36.8359 134.976 36.5391C134.481 36.4277 133.831 36.2979 133.027 36.1494C132.236 36.001 131.512 35.8402 130.856 35.667C129.038 35.1846 127.745 34.4795 126.979 33.5518C126.224 32.6117 125.847 31.4613 125.847 30.1006C125.847 29.2471 126.02 28.443 126.366 27.6885C126.725 26.9339 127.263 26.2598 127.98 25.666C128.673 25.0846 129.551 24.627 130.615 24.293C131.691 23.9466 132.891 23.7734 134.215 23.7734C135.452 23.7734 136.701 23.9281 137.963 24.2373C139.237 24.5342 140.295 24.8991 141.136 25.332V29.0615H140.95C140.06 28.4059 138.977 27.8555 137.703 27.4102C136.429 26.9525 135.18 26.7236 133.955 26.7236C132.681 26.7236 131.605 26.971 130.727 27.4658C129.848 27.9482 129.409 28.6719 129.409 29.6367C129.409 30.4902 129.675 31.1335 130.207 31.5664C130.727 31.9993 131.568 32.3519 132.73 32.624C133.374 32.7725 134.091 32.9209 134.883 33.0693C135.687 33.2178 136.355 33.3538 136.887 33.4775C138.507 33.8486 139.757 34.4857 140.635 35.3887C141.513 36.304 141.952 37.5163 141.952 39.0254ZM164.292 45H160.804V33.1992C160.804 32.2467 160.748 31.3561 160.637 30.5273C160.525 29.6862 160.321 29.0306 160.024 28.5605C159.715 28.041 159.27 27.6576 158.688 27.4102C158.107 27.1504 157.353 27.0205 156.425 27.0205C155.472 27.0205 154.477 27.2555 153.438 27.7256C152.398 28.1956 151.403 28.7956 150.45 29.5254V45H146.962V16.1289H150.45V26.5752C151.539 25.6722 152.664 24.9671 153.827 24.46C154.99 23.9528 156.184 23.6992 157.408 23.6992C159.647 23.6992 161.354 24.3734 162.529 25.7217C163.704 27.07 164.292 29.012 164.292 31.5479V45ZM188.673 34.6465C188.673 38.0234 187.807 40.6891 186.075 42.6436C184.343 44.598 182.024 45.5752 179.117 45.5752C176.186 45.5752 173.854 44.598 172.122 42.6436C170.403 40.6891 169.543 38.0234 169.543 34.6465C169.543 31.2695 170.403 28.6038 172.122 26.6494C173.854 24.6826 176.186 23.6992 179.117 23.6992C182.024 23.6992 184.343 24.6826 186.075 26.6494C187.807 28.6038 188.673 31.2695 188.673 34.6465ZM185.073 34.6465C185.073 31.9622 184.548 29.9707 183.496 28.6719C182.445 27.3607 180.985 26.7051 179.117 26.7051C177.225 26.7051 175.753 27.3607 174.701 28.6719C173.662 29.9707 173.143 31.9622 173.143 34.6465C173.143 37.2441 173.668 39.2171 174.72 40.5654C175.771 41.9014 177.237 42.5693 179.117 42.5693C180.973 42.5693 182.426 41.9076 183.478 40.584C184.541 39.248 185.073 37.2689 185.073 34.6465Z" fill="url(#paint0_linear_238_4)"/>
<path d="M26.5106 53.9697L24.245 55.4852L24.8968 55.0213L26.5106 53.9697Z" fill="#E63746"/>
<path d="M18.5053 58.1758L17.1398 60.0315C17.1087 60.0933 17.0467 60.1243 17.0156 60.1861L18.5053 58.1758Z" fill="#E63746"/>
<path d="M39.9191 0L39.7639 0.216499L36.288 4.91762L15.6495 33.3408C15.3702 33.7429 15.5875 34.2068 16.084 34.2068L25.3946 34.2687L17.5427 55.5165H16.6427C14.9668 55.5165 13.446 54.6196 12.6081 53.1969L0.628464 32.5367C-0.209488 31.114 -0.209488 29.3202 0.628464 27.8974L12.6081 7.23725C13.446 5.81454 14.9668 4.91762 16.6427 4.91762H32.0982C32.4086 4.91762 32.6879 4.82484 32.9362 4.67019L33.4948 4.32998L39.9191 0Z" fill="url(#paint1_linear_238_4)"/>
<path d="M16.7676 60.465L16.9228 60.2485L20.3987 55.5474L41.0372 27.1242C41.3165 26.7221 41.0993 26.2582 40.6027 26.2582L31.2921 26.1963L39.144 4.94849H40.0441C41.72 4.94849 43.2407 5.84541 44.0786 7.26812L56.0583 27.9283C56.8962 29.351 56.8962 31.1449 56.0583 32.5676L44.0786 53.2278C43.2407 54.6505 41.72 55.5474 40.0441 55.5474H24.5885C24.2781 55.5474 23.9988 55.6402 23.7505 55.7948L23.223 56.166L16.7676 60.465Z" fill="url(#paint2_linear_238_4)"/>
<defs>
<linearGradient id="paint0_linear_238_4" x1="117.701" y1="7.07314" x2="117.701" y2="53.0731" gradientUnits="userSpaceOnUse">
<stop stop-color="#FF4772"/>
<stop offset="1" stop-color="#E63746"/>
</linearGradient>
<linearGradient id="paint1_linear_238_4" x1="12.2537" y1="3.86932" x2="39.607" y2="46.3095" gradientUnits="userSpaceOnUse">
<stop stop-color="#E63746"/>
<stop offset="1" stop-color="#FF4772"/>
</linearGradient>
<linearGradient id="paint2_linear_238_4" x1="16.6431" y1="25.7369" x2="46.1013" y2="56.9134" gradientUnits="userSpaceOnUse">
<stop stop-color="#E63746"/>
<stop offset="1" stop-color="#FF4772"/>
</linearGradient>
</defs>
</svg>
